<mxfile host="Electron" modified="2023-12-20T10:48:38.213Z" agent="Mozilla/5.0 (Macintosh; Intel Mac OS X 10_15_7) AppleWebKit/537.36 (KHTML, like Gecko) draw.io/22.1.11 Chrome/114.0.5735.289 Electron/25.9.8 Safari/537.36" etag="FaUK6Yd1wjZbeT0js6_a" version="22.1.11" type="device">
  <diagram id="C5RBs43oDa-KdzZeNtuy" name="Page-1">
    <mxGraphModel dx="1405" dy="873" grid="1" gridSize="10" guides="1" tooltips="1" connect="1" arrows="1" fold="1" page="1" pageScale="1" pageWidth="827" pageHeight="1169" math="0" shadow="0">
      <root>
        <mxCell id="WIyWlLk6GJQsqaUBKTNV-0" />
        <mxCell id="WIyWlLk6GJQsqaUBKTNV-1" parent="WIyWlLk6GJQsqaUBKTNV-0" />
        <mxCell id="WE9RbeKmWWLNKagedYsp-73" value="" style="rounded=0;whiteSpace=wrap;html=1;fillColor=none;" parent="WIyWlLk6GJQsqaUBKTNV-1" vertex="1">
          <mxGeometry x="870" y="68" width="190" height="432" as="geometry" />
        </mxCell>
        <mxCell id="WE9RbeKmWWLNKagedYsp-13" style="edgeStyle=orthogonalEdgeStyle;rounded=0;orthogonalLoop=1;jettySize=auto;html=1;entryX=0.5;entryY=0;entryDx=0;entryDy=0;" parent="WIyWlLk6GJQsqaUBKTNV-1" source="WE9RbeKmWWLNKagedYsp-0" target="WE9RbeKmWWLNKagedYsp-1" edge="1">
          <mxGeometry relative="1" as="geometry" />
        </mxCell>
        <mxCell id="WE9RbeKmWWLNKagedYsp-0" value="" style="strokeWidth=2;html=1;shape=mxgraph.flowchart.start_2;whiteSpace=wrap;" parent="WIyWlLk6GJQsqaUBKTNV-1" vertex="1">
          <mxGeometry x="165" y="30" width="30" height="30" as="geometry" />
        </mxCell>
        <mxCell id="WE9RbeKmWWLNKagedYsp-3" style="edgeStyle=orthogonalEdgeStyle;rounded=0;orthogonalLoop=1;jettySize=auto;html=1;" parent="WIyWlLk6GJQsqaUBKTNV-1" source="WE9RbeKmWWLNKagedYsp-1" target="WE9RbeKmWWLNKagedYsp-2" edge="1">
          <mxGeometry relative="1" as="geometry" />
        </mxCell>
        <mxCell id="WE9RbeKmWWLNKagedYsp-1" value="Create new issue" style="rounded=1;whiteSpace=wrap;html=1;" parent="WIyWlLk6GJQsqaUBKTNV-1" vertex="1">
          <mxGeometry x="120" y="140" width="120" height="60" as="geometry" />
        </mxCell>
        <mxCell id="WE9RbeKmWWLNKagedYsp-7" style="edgeStyle=orthogonalEdgeStyle;rounded=0;orthogonalLoop=1;jettySize=auto;html=1;" parent="WIyWlLk6GJQsqaUBKTNV-1" source="WE9RbeKmWWLNKagedYsp-2" target="WE9RbeKmWWLNKagedYsp-6" edge="1">
          <mxGeometry relative="1" as="geometry" />
        </mxCell>
        <mxCell id="WE9RbeKmWWLNKagedYsp-2" value="Give issue a user story" style="rounded=1;whiteSpace=wrap;html=1;" parent="WIyWlLk6GJQsqaUBKTNV-1" vertex="1">
          <mxGeometry x="120" y="240" width="120" height="60" as="geometry" />
        </mxCell>
        <mxCell id="WE9RbeKmWWLNKagedYsp-17" style="edgeStyle=orthogonalEdgeStyle;rounded=0;orthogonalLoop=1;jettySize=auto;html=1;" parent="WIyWlLk6GJQsqaUBKTNV-1" source="WE9RbeKmWWLNKagedYsp-6" target="WE9RbeKmWWLNKagedYsp-16" edge="1">
          <mxGeometry relative="1" as="geometry" />
        </mxCell>
        <mxCell id="WE9RbeKmWWLNKagedYsp-6" value="Give issue success criteria" style="rounded=1;whiteSpace=wrap;html=1;" parent="WIyWlLk6GJQsqaUBKTNV-1" vertex="1">
          <mxGeometry x="120" y="340" width="120" height="60" as="geometry" />
        </mxCell>
        <mxCell id="WE9RbeKmWWLNKagedYsp-19" style="edgeStyle=orthogonalEdgeStyle;rounded=0;orthogonalLoop=1;jettySize=auto;html=1;entryX=1;entryY=0.5;entryDx=0;entryDy=0;" parent="WIyWlLk6GJQsqaUBKTNV-1" source="WE9RbeKmWWLNKagedYsp-14" target="WE9RbeKmWWLNKagedYsp-16" edge="1">
          <mxGeometry relative="1" as="geometry">
            <Array as="points">
              <mxPoint x="260" y="620" />
              <mxPoint x="260" y="480" />
            </Array>
          </mxGeometry>
        </mxCell>
        <mxCell id="WE9RbeKmWWLNKagedYsp-24" style="edgeStyle=orthogonalEdgeStyle;rounded=0;orthogonalLoop=1;jettySize=auto;html=1;entryX=0.5;entryY=0;entryDx=0;entryDy=0;" parent="WIyWlLk6GJQsqaUBKTNV-1" source="WE9RbeKmWWLNKagedYsp-14" target="WE9RbeKmWWLNKagedYsp-23" edge="1">
          <mxGeometry relative="1" as="geometry" />
        </mxCell>
        <mxCell id="WE9RbeKmWWLNKagedYsp-14" value="&lt;div&gt;Is issue ready to&amp;nbsp;&lt;/div&gt;&lt;div&gt;be worked on?&lt;/div&gt;" style="strokeWidth=2;html=1;shape=mxgraph.flowchart.decision;whiteSpace=wrap;" parent="WIyWlLk6GJQsqaUBKTNV-1" vertex="1">
          <mxGeometry x="117.5" y="570" width="125" height="100" as="geometry" />
        </mxCell>
        <mxCell id="WE9RbeKmWWLNKagedYsp-16" value="Issue is in status Backlog" style="rounded=1;whiteSpace=wrap;html=1;" parent="WIyWlLk6GJQsqaUBKTNV-1" vertex="1">
          <mxGeometry x="120" y="450" width="120" height="60" as="geometry" />
        </mxCell>
        <mxCell id="WE9RbeKmWWLNKagedYsp-18" style="edgeStyle=orthogonalEdgeStyle;rounded=0;orthogonalLoop=1;jettySize=auto;html=1;entryX=0.5;entryY=0;entryDx=0;entryDy=0;entryPerimeter=0;" parent="WIyWlLk6GJQsqaUBKTNV-1" source="WE9RbeKmWWLNKagedYsp-16" target="WE9RbeKmWWLNKagedYsp-14" edge="1">
          <mxGeometry relative="1" as="geometry" />
        </mxCell>
        <mxCell id="WE9RbeKmWWLNKagedYsp-20" value="no" style="text;html=1;align=center;verticalAlign=middle;resizable=0;points=[];autosize=1;strokeColor=none;fillColor=none;" parent="WIyWlLk6GJQsqaUBKTNV-1" vertex="1">
          <mxGeometry x="260" y="585" width="40" height="30" as="geometry" />
        </mxCell>
        <mxCell id="WE9RbeKmWWLNKagedYsp-23" value="Move issue to Ready" style="rounded=1;whiteSpace=wrap;html=1;" parent="WIyWlLk6GJQsqaUBKTNV-1" vertex="1">
          <mxGeometry x="120" y="720" width="120" height="60" as="geometry" />
        </mxCell>
        <mxCell id="WE9RbeKmWWLNKagedYsp-26" value="yes" style="text;html=1;align=center;verticalAlign=middle;resizable=0;points=[];autosize=1;strokeColor=none;fillColor=none;" parent="WIyWlLk6GJQsqaUBKTNV-1" vertex="1">
          <mxGeometry x="180" y="678" width="40" height="30" as="geometry" />
        </mxCell>
        <mxCell id="WE9RbeKmWWLNKagedYsp-32" style="edgeStyle=orthogonalEdgeStyle;rounded=0;orthogonalLoop=1;jettySize=auto;html=1;entryX=1;entryY=0.25;entryDx=0;entryDy=0;" parent="WIyWlLk6GJQsqaUBKTNV-1" source="WE9RbeKmWWLNKagedYsp-29" target="WE9RbeKmWWLNKagedYsp-23" edge="1">
          <mxGeometry relative="1" as="geometry">
            <Array as="points">
              <mxPoint x="403" y="660" />
              <mxPoint x="290" y="660" />
              <mxPoint x="290" y="735" />
            </Array>
          </mxGeometry>
        </mxCell>
        <mxCell id="WE9RbeKmWWLNKagedYsp-36" style="edgeStyle=orthogonalEdgeStyle;rounded=0;orthogonalLoop=1;jettySize=auto;html=1;entryX=0.5;entryY=1;entryDx=0;entryDy=0;" parent="WIyWlLk6GJQsqaUBKTNV-1" source="WE9RbeKmWWLNKagedYsp-29" target="WE9RbeKmWWLNKagedYsp-35" edge="1">
          <mxGeometry relative="1" as="geometry">
            <Array as="points">
              <mxPoint x="510" y="750" />
            </Array>
          </mxGeometry>
        </mxCell>
        <mxCell id="WE9RbeKmWWLNKagedYsp-29" value="Start working on issue?" style="strokeWidth=2;html=1;shape=mxgraph.flowchart.decision;whiteSpace=wrap;" parent="WIyWlLk6GJQsqaUBKTNV-1" vertex="1">
          <mxGeometry x="340" y="700" width="125" height="100" as="geometry" />
        </mxCell>
        <mxCell id="WE9RbeKmWWLNKagedYsp-30" style="edgeStyle=orthogonalEdgeStyle;rounded=0;orthogonalLoop=1;jettySize=auto;html=1;entryX=0;entryY=0.5;entryDx=0;entryDy=0;entryPerimeter=0;" parent="WIyWlLk6GJQsqaUBKTNV-1" source="WE9RbeKmWWLNKagedYsp-23" target="WE9RbeKmWWLNKagedYsp-29" edge="1">
          <mxGeometry relative="1" as="geometry" />
        </mxCell>
        <mxCell id="WE9RbeKmWWLNKagedYsp-31" value="no" style="text;html=1;align=center;verticalAlign=middle;resizable=0;points=[];autosize=1;strokeColor=none;fillColor=none;" parent="WIyWlLk6GJQsqaUBKTNV-1" vertex="1">
          <mxGeometry x="330" y="660" width="40" height="30" as="geometry" />
        </mxCell>
        <mxCell id="WE9RbeKmWWLNKagedYsp-38" style="edgeStyle=orthogonalEdgeStyle;rounded=0;orthogonalLoop=1;jettySize=auto;html=1;" parent="WIyWlLk6GJQsqaUBKTNV-1" source="WE9RbeKmWWLNKagedYsp-35" target="WE9RbeKmWWLNKagedYsp-37" edge="1">
          <mxGeometry relative="1" as="geometry" />
        </mxCell>
        <mxCell id="WE9RbeKmWWLNKagedYsp-35" value="Move issue to In Progress" style="rounded=1;whiteSpace=wrap;html=1;" parent="WIyWlLk6GJQsqaUBKTNV-1" vertex="1">
          <mxGeometry x="450" y="630" width="120" height="60" as="geometry" />
        </mxCell>
        <mxCell id="XPdTD1zhnmzniD1Hm851-0" style="edgeStyle=orthogonalEdgeStyle;rounded=0;orthogonalLoop=1;jettySize=auto;html=1;exitX=0.5;exitY=0;exitDx=0;exitDy=0;entryX=0.5;entryY=1;entryDx=0;entryDy=0;" edge="1" parent="WIyWlLk6GJQsqaUBKTNV-1" source="WE9RbeKmWWLNKagedYsp-37" target="WE9RbeKmWWLNKagedYsp-42">
          <mxGeometry relative="1" as="geometry" />
        </mxCell>
        <mxCell id="WE9RbeKmWWLNKagedYsp-37" value="Make Git branch for work" style="rounded=1;whiteSpace=wrap;html=1;" parent="WIyWlLk6GJQsqaUBKTNV-1" vertex="1">
          <mxGeometry x="450" y="520" width="120" height="60" as="geometry" />
        </mxCell>
        <mxCell id="WE9RbeKmWWLNKagedYsp-41" value="yes" style="text;html=1;align=center;verticalAlign=middle;resizable=0;points=[];autosize=1;strokeColor=none;fillColor=none;" parent="WIyWlLk6GJQsqaUBKTNV-1" vertex="1">
          <mxGeometry x="465" y="720" width="40" height="30" as="geometry" />
        </mxCell>
        <mxCell id="WE9RbeKmWWLNKagedYsp-45" style="edgeStyle=orthogonalEdgeStyle;rounded=0;orthogonalLoop=1;jettySize=auto;html=1;" parent="WIyWlLk6GJQsqaUBKTNV-1" source="WE9RbeKmWWLNKagedYsp-42" target="WE9RbeKmWWLNKagedYsp-44" edge="1">
          <mxGeometry relative="1" as="geometry" />
        </mxCell>
        <mxCell id="WE9RbeKmWWLNKagedYsp-42" value="Work on issue" style="rounded=1;whiteSpace=wrap;html=1;" parent="WIyWlLk6GJQsqaUBKTNV-1" vertex="1">
          <mxGeometry x="450" y="400" width="120" height="60" as="geometry" />
        </mxCell>
        <mxCell id="WE9RbeKmWWLNKagedYsp-44" value="Commit changes to branch" style="rounded=1;whiteSpace=wrap;html=1;" parent="WIyWlLk6GJQsqaUBKTNV-1" vertex="1">
          <mxGeometry x="450" y="310" width="120" height="60" as="geometry" />
        </mxCell>
        <mxCell id="WE9RbeKmWWLNKagedYsp-50" style="edgeStyle=orthogonalEdgeStyle;rounded=0;orthogonalLoop=1;jettySize=auto;html=1;entryX=0;entryY=0.5;entryDx=0;entryDy=0;" parent="WIyWlLk6GJQsqaUBKTNV-1" source="WE9RbeKmWWLNKagedYsp-48" target="WE9RbeKmWWLNKagedYsp-42" edge="1">
          <mxGeometry relative="1" as="geometry">
            <Array as="points">
              <mxPoint x="410" y="215" />
              <mxPoint x="410" y="330" />
              <mxPoint x="409" y="430" />
            </Array>
          </mxGeometry>
        </mxCell>
        <mxCell id="WE9RbeKmWWLNKagedYsp-55" style="edgeStyle=orthogonalEdgeStyle;rounded=0;orthogonalLoop=1;jettySize=auto;html=1;entryX=0;entryY=0.5;entryDx=0;entryDy=0;exitX=1;exitY=0.5;exitDx=0;exitDy=0;exitPerimeter=0;" parent="WIyWlLk6GJQsqaUBKTNV-1" source="WE9RbeKmWWLNKagedYsp-48" target="WE9RbeKmWWLNKagedYsp-54" edge="1">
          <mxGeometry relative="1" as="geometry">
            <mxPoint x="591.25" y="280" as="sourcePoint" />
          </mxGeometry>
        </mxCell>
        <mxCell id="WE9RbeKmWWLNKagedYsp-48" value="&lt;div&gt;Is the issue&#39;s success&amp;nbsp;&lt;/div&gt;&lt;div&gt;criteria fulfilled?&lt;/div&gt;" style="strokeWidth=2;html=1;shape=mxgraph.flowchart.decision;whiteSpace=wrap;" parent="WIyWlLk6GJQsqaUBKTNV-1" vertex="1">
          <mxGeometry x="428.75" y="170" width="162.5" height="90" as="geometry" />
        </mxCell>
        <mxCell id="WE9RbeKmWWLNKagedYsp-49" style="edgeStyle=orthogonalEdgeStyle;rounded=0;orthogonalLoop=1;jettySize=auto;html=1;entryX=0.5;entryY=1;entryDx=0;entryDy=0;entryPerimeter=0;" parent="WIyWlLk6GJQsqaUBKTNV-1" source="WE9RbeKmWWLNKagedYsp-44" target="WE9RbeKmWWLNKagedYsp-48" edge="1">
          <mxGeometry relative="1" as="geometry" />
        </mxCell>
        <mxCell id="WE9RbeKmWWLNKagedYsp-51" value="no" style="text;html=1;align=center;verticalAlign=middle;resizable=0;points=[];autosize=1;strokeColor=none;fillColor=none;" parent="WIyWlLk6GJQsqaUBKTNV-1" vertex="1">
          <mxGeometry x="400" y="230" width="40" height="30" as="geometry" />
        </mxCell>
        <mxCell id="WE9RbeKmWWLNKagedYsp-58" style="edgeStyle=orthogonalEdgeStyle;rounded=0;orthogonalLoop=1;jettySize=auto;html=1;" parent="WIyWlLk6GJQsqaUBKTNV-1" source="WE9RbeKmWWLNKagedYsp-54" target="WE9RbeKmWWLNKagedYsp-57" edge="1">
          <mxGeometry relative="1" as="geometry" />
        </mxCell>
        <mxCell id="WE9RbeKmWWLNKagedYsp-54" value="Create pull request" style="rounded=1;whiteSpace=wrap;html=1;" parent="WIyWlLk6GJQsqaUBKTNV-1" vertex="1">
          <mxGeometry x="670" y="160" width="120" height="60" as="geometry" />
        </mxCell>
        <mxCell id="WE9RbeKmWWLNKagedYsp-56" value="yes" style="text;html=1;align=center;verticalAlign=middle;resizable=0;points=[];autosize=1;strokeColor=none;fillColor=none;" parent="WIyWlLk6GJQsqaUBKTNV-1" vertex="1">
          <mxGeometry x="580" y="188" width="40" height="30" as="geometry" />
        </mxCell>
        <mxCell id="WE9RbeKmWWLNKagedYsp-60" style="edgeStyle=orthogonalEdgeStyle;rounded=0;orthogonalLoop=1;jettySize=auto;html=1;" parent="WIyWlLk6GJQsqaUBKTNV-1" source="WE9RbeKmWWLNKagedYsp-57" edge="1">
          <mxGeometry relative="1" as="geometry">
            <mxPoint x="730" y="385" as="targetPoint" />
          </mxGeometry>
        </mxCell>
        <mxCell id="WE9RbeKmWWLNKagedYsp-57" value="Assign group members to review pull request" style="rounded=1;whiteSpace=wrap;html=1;" parent="WIyWlLk6GJQsqaUBKTNV-1" vertex="1">
          <mxGeometry x="670" y="275" width="120" height="60" as="geometry" />
        </mxCell>
        <mxCell id="WE9RbeKmWWLNKagedYsp-62" style="edgeStyle=orthogonalEdgeStyle;rounded=0;orthogonalLoop=1;jettySize=auto;html=1;" parent="WIyWlLk6GJQsqaUBKTNV-1" source="WE9RbeKmWWLNKagedYsp-61" target="WE9RbeKmWWLNKagedYsp-42" edge="1">
          <mxGeometry relative="1" as="geometry" />
        </mxCell>
        <mxCell id="WE9RbeKmWWLNKagedYsp-68" style="edgeStyle=orthogonalEdgeStyle;rounded=0;orthogonalLoop=1;jettySize=auto;html=1;entryX=0.5;entryY=0;entryDx=0;entryDy=0;" parent="WIyWlLk6GJQsqaUBKTNV-1" source="WE9RbeKmWWLNKagedYsp-61" target="WE9RbeKmWWLNKagedYsp-67" edge="1">
          <mxGeometry relative="1" as="geometry" />
        </mxCell>
        <mxCell id="WE9RbeKmWWLNKagedYsp-61" value="Is pull request approved?" style="strokeWidth=2;html=1;shape=mxgraph.flowchart.decision;whiteSpace=wrap;" parent="WIyWlLk6GJQsqaUBKTNV-1" vertex="1">
          <mxGeometry x="648.75" y="385" width="162.5" height="90" as="geometry" />
        </mxCell>
        <mxCell id="WE9RbeKmWWLNKagedYsp-63" value="no" style="text;html=1;align=center;verticalAlign=middle;resizable=0;points=[];autosize=1;strokeColor=none;fillColor=none;" parent="WIyWlLk6GJQsqaUBKTNV-1" vertex="1">
          <mxGeometry x="610" y="393" width="40" height="30" as="geometry" />
        </mxCell>
        <mxCell id="WE9RbeKmWWLNKagedYsp-67" value="Merge branch into main" style="rounded=1;whiteSpace=wrap;html=1;" parent="WIyWlLk6GJQsqaUBKTNV-1" vertex="1">
          <mxGeometry x="670" y="545" width="120" height="60" as="geometry" />
        </mxCell>
        <mxCell id="WE9RbeKmWWLNKagedYsp-69" value="yes" style="text;html=1;align=center;verticalAlign=middle;resizable=0;points=[];autosize=1;strokeColor=none;fillColor=none;" parent="WIyWlLk6GJQsqaUBKTNV-1" vertex="1">
          <mxGeometry x="730" y="503" width="40" height="30" as="geometry" />
        </mxCell>
        <mxCell id="WE9RbeKmWWLNKagedYsp-71" style="edgeStyle=orthogonalEdgeStyle;rounded=0;orthogonalLoop=1;jettySize=auto;html=1;entryX=0.5;entryY=0;entryDx=0;entryDy=0;entryPerimeter=0;" parent="WIyWlLk6GJQsqaUBKTNV-1" source="WE9RbeKmWWLNKagedYsp-67" target="XPdTD1zhnmzniD1Hm851-1" edge="1">
          <mxGeometry relative="1" as="geometry">
            <mxPoint x="730" y="675" as="targetPoint" />
          </mxGeometry>
        </mxCell>
        <mxCell id="WE9RbeKmWWLNKagedYsp-74" value="Activity" style="rounded=1;whiteSpace=wrap;html=1;" parent="WIyWlLk6GJQsqaUBKTNV-1" vertex="1">
          <mxGeometry x="905" y="110" width="120" height="60" as="geometry" />
        </mxCell>
        <mxCell id="WE9RbeKmWWLNKagedYsp-75" value="Condition" style="strokeWidth=2;html=1;shape=mxgraph.flowchart.decision;whiteSpace=wrap;" parent="WIyWlLk6GJQsqaUBKTNV-1" vertex="1">
          <mxGeometry x="891.88" y="200" width="146.25" height="90" as="geometry" />
        </mxCell>
        <mxCell id="WE9RbeKmWWLNKagedYsp-76" value="" style="strokeWidth=2;html=1;shape=mxgraph.flowchart.start_2;whiteSpace=wrap;" parent="WIyWlLk6GJQsqaUBKTNV-1" vertex="1">
          <mxGeometry x="905" y="350" width="30" height="30" as="geometry" />
        </mxCell>
        <mxCell id="WE9RbeKmWWLNKagedYsp-79" value="Initial state" style="text;html=1;strokeColor=none;fillColor=none;align=center;verticalAlign=middle;whiteSpace=wrap;rounded=0;" parent="WIyWlLk6GJQsqaUBKTNV-1" vertex="1">
          <mxGeometry x="950" y="350" width="60" height="30" as="geometry" />
        </mxCell>
        <mxCell id="WE9RbeKmWWLNKagedYsp-80" value="Final state" style="text;html=1;strokeColor=none;fillColor=none;align=center;verticalAlign=middle;whiteSpace=wrap;rounded=0;" parent="WIyWlLk6GJQsqaUBKTNV-1" vertex="1">
          <mxGeometry x="950" y="432.5" width="60" height="30" as="geometry" />
        </mxCell>
        <mxCell id="XPdTD1zhnmzniD1Hm851-1" value="" style="strokeWidth=2;html=1;shape=mxgraph.flowchart.start_2;whiteSpace=wrap;fillColor=#f9f7ed;strokeColor=#000000;" vertex="1" parent="WIyWlLk6GJQsqaUBKTNV-1">
          <mxGeometry x="710" y="678" width="40" height="40" as="geometry" />
        </mxCell>
        <mxCell id="XPdTD1zhnmzniD1Hm851-2" value="" style="strokeWidth=2;html=1;shape=mxgraph.flowchart.start_2;whiteSpace=wrap;" vertex="1" parent="WIyWlLk6GJQsqaUBKTNV-1">
          <mxGeometry x="715" y="683" width="30" height="30" as="geometry" />
        </mxCell>
        <mxCell id="XPdTD1zhnmzniD1Hm851-3" value="" style="strokeWidth=2;html=1;shape=mxgraph.flowchart.start_2;whiteSpace=wrap;fillColor=#f9f7ed;strokeColor=#000000;" vertex="1" parent="WIyWlLk6GJQsqaUBKTNV-1">
          <mxGeometry x="900" y="427.5" width="40" height="40" as="geometry" />
        </mxCell>
        <mxCell id="XPdTD1zhnmzniD1Hm851-4" value="" style="strokeWidth=2;html=1;shape=mxgraph.flowchart.start_2;whiteSpace=wrap;" vertex="1" parent="WIyWlLk6GJQsqaUBKTNV-1">
          <mxGeometry x="905" y="432.5" width="30" height="30" as="geometry" />
        </mxCell>
      </root>
    </mxGraphModel>
  </diagram>
</mxfile>
